# xmcd
# 
# Track frame offsets:
#     187
#     16080
#     29650
#     48515
#     65735
#     80167
#     95977
#     115727
#     138365
#     161690
#     184597
#     202357
# 
# Disc length: 2946
# 
# Revision: 2
# Processed by: cddbd v1.5.2PL0 Copyright (c) Steve Scherf et al.
# Submitted via: fre:ac v1.1beta1pre2
# 
DISCID=b20b800c
DTITLE=カブキロックス - カブキロックス
DYEAR=1990
DGENRE=J-Metal
TTITLE0=浮世の夢に…
TTITLE1=お夏狂乱
TTITLE2=桃源郷 (SHANGRI-LA)
TTITLE3=ZIPANG
TTITLE4=MISTY BLUE MOON
TTITLE5=元禄Night
TTITLE6=虹の都
TTITLE7=Foxy Lady 〜狐火〜
TTITLE8=O・EDO 〜お江戸〜
TTITLE9=PURPLE LADY 〜藤娘〜
TTITLE10=好色一代男
TTITLE11=Bye Bye Lady 〜桜姫〜
EXTD=
EXTT0=
EXTT1=
EXTT2=
EXTT3=
EXTT4=
EXTT5=
EXTT6=
EXTT7=
EXTT8=
EXTT9=
EXTT10=
EXTT11=
PLAYORDER=
